<?xml version="1.0" encoding="utf-8"?>
<!-- Generator: Adobe Illustrator 24.3.0, SVG Export Plug-In . SVG Version: 6.00 Build 0)  -->
<svg version="1.1" id="레이어_1" xmlns="http://www.w3.org/2000/svg" xmlns:xlink="http://www.w3.org/1999/xlink" x="0px"
	 y="0px" viewBox="0 0 512 512" style="enable-background:new 0 0 512 512;" xml:space="preserve">
<style type="text/css">
	.st0{fill:#231815;}
</style>
<path class="st0" d="M255.67,465.94c-78.02,0-141.49-64.85-141.49-144.57c0-76.61,127.8-256.62,133.24-264.24l8.25-11.56l8.25,11.56
	c0.32,0.45,32.4,45.52,64.55,99.37c2.87,4.81,1.3,11.03-3.51,13.9c-4.81,2.87-11.03,1.3-13.9-3.51
	c-21.96-36.79-43.89-69.42-55.39-86.14c-28.53,41.51-121.23,180.96-121.23,240.62c0,68.54,54.38,124.29,121.22,124.29
	c66.84,0,121.22-55.76,121.22-124.29c0-16.33-7.31-40.61-21.72-72.16c-2.33-5.09-0.08-11.1,5.01-13.43
	c5.09-2.32,11.1-0.09,13.43,5.01c15.85,34.69,23.55,61.05,23.55,80.58C397.16,401.09,333.69,465.94,255.67,465.94z"/>
</svg>
